PathFileType	4	(X/Y/Z)	/Users/itak/Documents/Research/Walk-IL/dataset/trc/00032_00004.trc
DataRate	CameraRate	NumFrames	NumMarkers	Units	OrigDataRate	OrigDataStartFrame	OrigNumFrames
100.000000	100.000000	4	53	mm	100.000000	387	774
Frame#	Time	RPSI			LPSI			L3			STRN			T10			C7			CLAV			RBAK			LBAK			LSHO			LUPA			LAEL			LAOL			LWTS			LWPS			LFRA			LIFD			LHPS			LHTS			RSHO			RUPA			RAEL			RAOL			RWTS			RWPS			RFRA			RIFD			RHTS			RHPS			RBHD			LFHD			RFHD			LBHD			LHIP			RHIP			RASI			LASI			LKNE			LTHI			LANK			LTIP			LTOE			LMT1			LMT5			LHEE			RKNE			RTHI			RANK			RTIP			RTOE			RMT1			RMT5			RHEE			
		X1	Y1	Z1	X2	Y2	Z2	X3	Y3	Z3	X4	Y4	Z4	X5	Y5	Z5	X6	Y6	Z6	X7	Y7	Z7	X8	Y8	Z8	X9	Y9	Z9	X10	Y10	Z10	X11	Y11	Z11	X12	Y12	Z12	X13	Y13	Z13	X14	Y14	Z14	X15	Y15	Z15	X16	Y16	Z16	X17	Y17	Z17	X18	Y18	Z18	X19	Y19	Z19	X20	Y20	Z20	X21	Y21	Z21	X22	Y22	Z22	X23	Y23	Z23	X24	Y24	Z24	X25	Y25	Z25	X26	Y26	Z26	X27	Y27	Z27	X28	Y28	Z28	X29	Y29	Z29	X30	Y30	Z30	X31	Y31	Z31	X32	Y32	Z32	X33	Y33	Z33	X34	Y34	Z34	X35	Y35	Z35	X36	Y36	Z36	X37	Y37	Z37	X38	Y38	Z38	X39	Y39	Z39	X40	Y40	Z40	X41	Y41	Z41	X42	Y42	Z42	X43	Y43	Z43	X44	Y44	Z44	X45	Y45	Z45	X46	Y46	Z46	X47	Y47	Z47	X48	Y48	Z48	X49	Y49	Z49	X50	Y50	Z50	X51	Y51	Z51	X52	Y52	Z52	X53	Y53	Z53	

388	3.87	225.7557525634766	1035.01318359375	-539.01416015625	241.61962890625	1041.245483398438	-701.3795776367188	225.7308807373047	1103.92626953125	-627.5908203125	442.8086853027344	1291.819091796875	-581.1766967773438	200.0682067871094	1248.635986328125	-631.8129272460938	254.6356506347656	1516.331176757812	-622.73779296875	403.2658081054688	1418.096069335938	-588.4268798828125	181.7917633056641	1377.50537109375	-562.9718017578125	255.1633148193359	1480.55859375	-722.6592407226562	371.2129516601562	1487.423706054688	-772.9442749023438	349.2099304199219	1375.081298828125	-870.2965087890625	340.8680114746094	1168.20166015625	-933.3335571289062	269.2212524414062	1146.676025390625	-859.114501953125	396.5418701171875	902.116455078125	-903.559326171875	335.3417358398438	903.41259765625	-968.0272827148438	348.1806335449219	1054.2099609375	-957.2398071289062	405.8596801757812	715.3884887695312	-913.0402221679688	361.6400146484375	811.2747802734375	-974.95947265625	413.9837341308594	809.1414184570312	-926.4359130859375	289.5604248046875	1487.921508789062	-436.9107666015625	255.0997314453125	1418.789672851562	-375.4899291992188	182.4688110351562	1159.303833007812	-367.4932250976562	204.6006011962891	1132.5302734375	-461.3710021972656	300.9188842773438	894.7546997070312	-374.5048522949219	223.40234375	879.2508544921875	-328.1899108886719	184.7903137207031	1081.230346679688	-351.5267639160156	322.0880737304688	711.9765625	-400.9400634765625	328.4352722167969	785.8043212890625	-361.5609436035156	261.833740234375	776.1821899414062	-328.0975646972656	389.4934997558594	1701.837280273438	-640.644775390625	449.3457946777344	1656.2265625	-435.4472961425781	512.4762573242188	1667.178100585938	-511.5191040039062	303.6553955078125	1683.281616210938	-527.3578491210938	361.5429077148438	954.741943359375	-802.3604125976562	330.1835021972656	912.9138793945312	-430.7922973632812	436.0454711914062	961.001953125	-486.8971557617188	464.3592834472656	999.7506713867188	-719.017822265625	493.7951354980469	523.1480102539062	-772.462158203125	445.000732421875	655.8235473632812	-807.0829467773438	377.6800231933594	36.68230056762695	-848.4293823242188	419.4853210449219	284.4520568847656	-831.906982421875	571.4628295898438	35.39194869995117	-722.6009521484375	510.1982421875	46.07292175292969	-724.906005859375	501.4589538574219	31.07733154296875	-833.5668334960938	297.7104797363281	45.35466384887695	-818.410400390625	434.9169311523438	481.1383666992188	-479.9060668945312	378.5184020996094	751.8359985351562	-441.5984802246094	11.81159114837646	239.2130889892578	-577.6293334960938	348.3119812011719	385.90478515625	-498.4381713867188	142.8380737304688	48.74093246459961	-593.1365356445312	111.8982391357422	100.390510559082	-628.8084716796875	89.48727416992188	118.9052505493164	-535.2694702148438	-11.98458194732666	279.8088684082031	-629.643310546875	
389	3.88	231.9138488769531	1036.36376953125	-540.8845825195312	249.9124755859375	1042.417602539062	-702.9410400390625	233.3530578613281	1105.184936523438	-629.6365966796875	450.0818481445312	1292.8896484375	-580.0181274414062	208.0968170166016	1249.903076171875	-634.5863037109375	262.8481140136719	1517.548583984375	-624.6493530273438	410.8128662109375	1419.17822265625	-587.84130859375	188.9603576660156	1378.7998046875	-566.1336059570312	265.0172729492188	1481.766357421875	-724.5075073242188	381.8549194335938	1488.6396484375	-772.8995971679688	361.7682189941406	1376.447998046875	-870.7337036132812	355.5461730957031	1169.701049804688	-934.3660888671875	282.7113342285156	1147.526489257812	-861.4718017578125	412.5040588378906	903.964599609375	-904.31494140625	352.3691101074219	904.9679565429688	-969.7398071289062	363.9829406738281	1055.836059570312	-958.431640625	423.3889770507812	717.1881713867188	-914.1713256835938	379.5225830078125	813.1173095703125	-976.5805053710938	431.0878601074219	811.2338256835938	-927.1974487304688	294.6815490722656	1489.070190429688	-438.2773132324219	259.087646484375	1419.949829101562	-377.5341186523438	185.93408203125	1160.627319335938	-370.8594055175781	209.7752380371094	1133.807861328125	-464.3271484375	303.9193115234375	895.78955078125	-375.7710266113281	225.5365905761719	880.4586181640625	-330.8807373046875	187.8130340576172	1082.556640625	-354.8587341308594	325.1840209960938	712.9215698242188	-401.99853515625	331.2104797363281	786.9619140625	-362.2927551269531	263.8195190429688	777.3179931640625	-330.1006164550781	398.3895874023438	1702.913208007812	-640.1776123046875	454.609619140625	1657.074829101562	-434.010009765625	519.0150756835938	1667.907104492188	-508.9866638183594	310.6128540039062	1684.468139648438	-528.4526977539062	370.6308898925781	955.46728515625	-802.208984375	335.0645446777344	914.5491333007812	-430.7318420410156	441.3876037597656	962.419677734375	-485.9005432128906	472.8593444824219	1000.252075195312	-717.7672119140625	496.2505187988281	522.3309936523438	-772.4639282226562	449.7616577148438	655.6639404296875	-806.7670288085938	377.6948547363281	36.76961517333984	-848.351806640625	420.4142150878906	284.2439270019531	-831.9876708984375	571.4877319335938	35.38219451904297	-722.5916137695312	510.18701171875	46.03438186645508	-724.8455200195312	501.4462585449219	31.11549949645996	-833.5009765625	297.7612915039062	45.49831008911133	-818.3992919921875	448.2104187011719	484.5101623535156	-476.9960632324219	385.6080627441406	754.1991577148438	-440.2131652832031	32.01190948486328	234.7523651123047	-585.0204467773438	363.8644104003906	387.6835327148438	-497.6565551757812	170.7027435302734	50.21525192260742	-598.6800537109375	138.3014068603516	100.3058776855469	-634.7053833007812	113.2704696655273	117.1908264160156	-541.5091552734375	7.765158176422119	274.6923217773438	-637.3427124023438	
390	3.89	238.0534515380859	1037.67626953125	-542.6289672851562	258.4063415527344	1043.535278320312	-704.3264770507812	240.9816741943359	1106.383056640625	-631.5570678710938	457.2943115234375	1293.900756835938	-578.707763671875	216.1214294433594	1251.105224609375	-637.2279663085938	271.029052734375	1518.71630859375	-626.41845703125	418.3029479980469	1420.209350585938	-587.1110229492188	196.1588745117188	1380.027221679688	-569.1575927734375	274.8756713867188	1482.921875	-726.1783447265625	392.4393005371094	1489.80615234375	-772.6542358398438	374.2630004882812	1377.7822265625	-870.9346923828125	370.1084289550781	1171.180053710938	-935.1312866210938	296.1052856445312	1148.366821289062	-863.5855102539062	428.5085144042969	905.88720703125	-904.6546630859375	369.4156494140625	906.5006103515625	-971.0126953125	379.7184448242188	1057.443359375	-959.296630859375	441.1270446777344	719.1290283203125	-914.7310180664062	397.4912109375	814.9502563476562	-977.6808471679688	448.2876892089844	813.4249267578125	-927.4574584960938	299.8009948730469	1490.158081054688	-439.5379028320312	263.0481262207031	1421.065063476562	-379.4997863769531	189.3964691162109	1161.908569335938	-374.1445007324219	214.9472808837891	1135.023803710938	-467.1693725585938	306.9279174804688	896.7893676757812	-376.9613647460938	227.6878051757812	881.6226806640625	-333.5021667480469	190.8516998291016	1083.836791992188	-358.1041870117188	328.21533203125	713.8457641601562	-403.0057067871094	333.9248962402344	788.0172119140625	-362.9991760253906	265.8133239746094	778.4131469726562	-332.0618286132812	407.1925354003906	1703.952392578125	-639.5125122070312	459.7804870605469	1657.864135742188	-432.4317626953125	525.41015625	1668.599609375	-506.2878112792969	317.4937133789062	1685.577392578125	-529.3900146484375	379.560546875	956.146728515625	-801.9417114257812	339.8582763671875	916.16748046875	-430.6174011230469	446.6719360351562	963.7776489257812	-484.8885803222656	481.2256469726562	1000.649719238281	-716.41845703125	498.4479675292969	521.548095703125	-772.5440673828125	454.2822265625	655.5154418945312	-806.4503173828125	377.697265625	36.84800720214844	-848.27490234375	421.1993103027344	284.0677795410156	-832.111328125	571.4981689453125	35.36849594116211	-722.591796875	510.1798095703125	46.00724411010742	-724.8048095703125	501.4338684082031	31.14054489135742	-833.458740234375	297.8021545410156	45.63993453979492	-818.3934326171875	461.11083984375	487.9976196289062	-473.7129516601562	392.5715942382812	756.620361328125	-438.702392578125	53.03888320922852	228.8235321044922	-591.7979736328125	379.2624206542969	389.2099914550781	-496.5698852539062	199.863525390625	51.17585372924805	-604.4885864257812	165.7603149414062	99.71141052246094	-640.548583984375	138.3589477539062	114.4153594970703	-547.73291015625	28.14917182922363	268.1969604492188	-644.2625122070312	
391	3.9	244.1984405517578	1038.932739257812	-544.2376098632812	267.0840148925781	1044.58447265625	-705.5338134765625	248.6105651855469	1107.506591796875	-633.3441772460938	464.4542236328125	1294.834350585938	-577.2501220703125	224.1505432128906	1252.229248046875	-639.7307739257812	279.1897277832031	1519.815063476562	-628.0411376953125	425.7441101074219	1421.17236328125	-586.2355346679688	203.377685546875	1381.171264648438	-572.0404663085938	284.7372741699219	1484.007690429688	-727.6696166992188	402.9717102050781	1490.901733398438	-772.2047119140625	386.7056884765625	1379.06298828125	-870.9006958007812	384.5560302734375	1172.61767578125	-935.6319580078125	309.3911743164062	1149.188354492188	-865.46826171875	444.5134887695312	907.8499755859375	-904.5601806640625	386.468017578125	907.9949951171875	-971.8464965820312	395.3839111328125	1059.011962890625	-959.8336181640625	459.0271911621094	721.1993408203125	-914.7088623046875	415.5155639648438	816.7540893554688	-978.2490844726562	465.5294189453125	815.6693115234375	-927.1904296875	304.9233703613281	1491.167236328125	-440.690185546875	266.994140625	1422.11962890625	-381.3775939941406	192.8632659912109	1163.129150390625	-377.3378295898438	220.1453247070312	1136.160034179688	-469.8856201171875	309.9508361816406	897.7396240234375	-378.0846557617188	229.8775787353516	882.7266235351562	-336.0442504882812	193.9183807373047	1085.050903320312	-361.248291015625	331.2041625976562	714.7540893554688	-403.9379272460938	336.5571899414062	788.9312133789062	-363.7001953125	267.8318786621094	779.45166015625	-333.9825439453125	415.8951110839844	1704.934814453125	-638.6598510742188	464.8551940917969	1658.592407226562	-430.7219543457031	531.6610107421875	1669.255981445312	-503.432861328125	324.2828979492188	1686.589721679688	-530.1759033203125	388.33251953125	956.7572021484375	-801.5621337890625	344.5841979980469	917.7554321289062	-430.4565124511719	451.9262084960938	965.05859375	-483.8671264648438	489.4584350585938	1000.919311523438	-714.9871215820312	500.4448852539062	520.7939453125	-772.6940307617188	458.6038513183594	655.3700561523438	-806.129638671875	377.6891174316406	36.91785049438477	-848.1973876953125	421.8658142089844	283.9231262207031	-832.2686767578125	571.4993896484375	35.35289001464844	-722.6016235351562	510.1786499023438	45.98976516723633	-724.7801513671875	501.4256286621094	31.15384292602539	-833.4373168945312	297.8326110839844	45.78144454956055	-818.3870239257812	473.6075134277344	491.5675354003906	-470.0676574707031	399.4356689453125	759.0870361328125	-437.0700988769531	74.87506866455078	221.6558074951172	-598.0081176757812	394.4718933105469	390.5398864746094	-495.1422729492188	230.1060485839844	51.59991073608398	-609.9005126953125	194.2011566162109	98.60486602783203	-645.8773193359375	164.5857696533203	110.8744583129883	-553.5669555664062	49.26029205322266	260.4418334960938	-650.5848999023438	
